<?xml version="1.0" encoding="UTF-8" standalone="no"?>
<!-- Created with Inkscape (http://www.inkscape.org/) -->

<svg
   width="2050"
   height="550"
   viewBox="0 0 542.39584 145.52084"
   version="1.1"
   id="svg1"
   inkscape:version="1.4.4 (dcaf3e7, 2026-05-05)"
   sodipodi:docname="logo_horizontal.svg"
   inkscape:export-filename="logo_horizontal.png"
   inkscape:export-xdpi="96"
   inkscape:export-ydpi="96"
   xmlns:inkscape="http://www.inkscape.org/namespaces/inkscape"
   xmlns:sodipodi="http://sodipodi.sourceforge.net/DTD/sodipodi-0.dtd"
   xmlns="http://www.w3.org/2000/svg"
   xmlns:svg="http://www.w3.org/2000/svg">
  <sodipodi:namedview
     id="namedview1"
     pagecolor="#ffffff"
     bordercolor="#000000"
     borderopacity="0.25"
     inkscape:showpageshadow="2"
     inkscape:pageopacity="0.0"
     inkscape:pagecheckerboard="0"
     inkscape:deskcolor="#d1d1d1"
     inkscape:document-units="mm"
     inkscape:zoom="0.18030252"
     inkscape:cx="940.08669"
     inkscape:cy="748.74161"
     inkscape:window-width="1512"
     inkscape:window-height="831"
     inkscape:window-x="0"
     inkscape:window-y="33"
     inkscape:window-maximized="1"
     inkscape:current-layer="layer1" />
  <defs
     id="defs1" />
  <g
     inkscape:label="Capa 1"
     inkscape:groupmode="layer"
     id="layer1">
    <g
       id="text9"
       style="font-weight:bold;font-size:101.124px;font-family:'DIN Alternate';-inkscape-font-specification:'DIN Alternate Bold';fill:#209f91;stroke-width:0.526688"
       aria-label="EDLibre">
      <path
         style="font-weight:800;font-family:Avenir;-inkscape-font-specification:'Avenir Ultra-Bold';fill:#2f6fa5"
         d="m 159.29757,24.923808 h 48.64064 v 14.561856 h -32.8653 v 13.348368 h 31.04507 v 14.561856 h -31.04507 v 14.561856 h 34.68554 V 96.5196 h -50.46088 z m 63.10129,0 h 23.66302 q 8.59554,0 16.28096,1.921356 7.78655,1.921356 13.55062,6.269688 5.76406,4.247208 9.10116,11.12364 3.43821,6.876432 3.43821,16.68546 0,8.696664 -3.33709,15.370848 -3.23597,6.57306 -8.79779,11.12364 -5.56182,4.449456 -12.84275,6.775308 -7.28092,2.325852 -15.26972,2.325852 h -25.78662 z m 15.77534,57.033936 h 8.19105 q 5.46069,0 10.1124,-1.112364 4.75283,-1.112364 8.19104,-3.640464 3.43822,-2.629224 5.35957,-6.775308 2.02248,-4.247208 2.02248,-10.314648 0,-5.258448 -2.02248,-9.10116 -1.92135,-3.943836 -5.25844,-6.471936 -3.3371,-2.5281 -7.88768,-3.741588 -4.44945,-1.314612 -9.40453,-1.314612 h -9.30341 z"
         id="path3" />
      <path
         style="font-weight:800;font-family:Avenir;-inkscape-font-specification:'Avenir Ultra-Bold'"
         d="m 299.7588,24.923808 h 15.77534 v 57.033936 h 29.22484 V 96.5196 H 299.7588 Z m 51.97781,22.449528 h 15.1686 V 96.5196 h -15.1686 z m -1.21349,-15.471972 q 0,-3.640464 2.5281,-6.168564 2.62923,-2.629224 6.26969,-2.629224 3.64046,0 6.16856,2.629224 2.62923,2.5281 2.62923,6.168564 0,3.640464 -2.62923,6.269688 -2.5281,2.5281 -6.16856,2.5281 -3.64046,0 -6.26969,-2.5281 -2.5281,-2.629224 -2.5281,-6.269688 z m 28.71923,-11.831509 h 15.1686 v 32.561929 h 0.20225 q 2.62922,-3.53934 6.67418,-4.955076 4.14609,-1.51686 8.89891,-1.51686 5.25845,0 9.40454,2.224728 4.14608,2.123604 6.97755,5.764068 2.9326,3.640464 4.44946,8.393292 1.61798,4.651704 1.61798,9.809028 0,5.56182 -1.71911,10.213524 -1.7191,4.651704 -4.95507,8.08992 -3.13485,3.337092 -7.5843,5.258448 -4.44946,1.820232 -9.91015,1.820232 -2.62923,0 -4.95508,-0.707868 -2.32585,-0.707868 -4.34833,-1.820232 -1.92136,-1.112364 -3.43822,-2.426976 -1.41573,-1.415736 -2.32585,-2.730348 h -0.20225 V 96.5196 h -13.95511 z m 13.95511,51.876613 q 0,5.56182 3.13485,9.000036 3.23596,3.438216 9.00003,3.438216 5.76407,0 8.89891,-3.438216 3.23597,-3.438216 3.23597,-9.000036 0,-5.56182 -3.23597,-9.000036 -3.13484,-3.438216 -8.89891,-3.438216 -5.76407,0 -9.00003,3.438216 -3.13485,3.438216 -3.13485,9.000036 z m 48.33721,-24.573132 h 15.1686 v 7.887672 h 0.20224 q 2.42698,-4.55058 5.76407,-6.775308 3.33709,-2.325852 8.39329,-2.325852 1.31462,0 2.62923,0.101124 1.31461,0.101124 2.42697,0.404496 v 13.853988 q -1.61798,-0.50562 -3.23596,-0.707868 -1.51686,-0.303372 -3.23597,-0.303372 -4.34833,0 -6.87643,1.213488 -2.5281,1.213488 -3.94384,3.438216 -1.31461,2.123604 -1.71911,5.157324 -0.40449,3.03372 -0.40449,6.674184 V 96.5196 h -15.1686 z m 85.85426,40.651848 q -3.64047,4.651704 -9.20229,7.179804 -5.56182,2.5281 -11.52813,2.5281 -5.66295,0 -10.71915,-1.820232 -4.95507,-1.820232 -8.69666,-5.157324 -3.64047,-3.438216 -5.76407,-8.191044 -2.1236,-4.752828 -2.1236,-10.61802 0,-5.865192 2.1236,-10.61802 2.1236,-4.752828 5.76407,-8.08992 3.74159,-3.438216 8.69666,-5.258448 5.0562,-1.820232 10.71915,-1.820232 5.25844,0 9.50565,1.820232 4.34833,1.820232 7.28093,5.258448 3.03372,3.337092 4.6517,8.08992 1.61799,4.752828 1.61799,10.61802 v 4.752828 h -35.19115 q 0.91011,4.348332 3.94383,6.977556 3.03372,2.5281 7.48318,2.5281 3.74159,0 6.26969,-1.617984 2.62922,-1.719108 4.55058,-4.348332 z M 514.54618,66.384648 q 0.10112,-3.842712 -2.5281,-6.57306 -2.62923,-2.730348 -6.77531,-2.730348 -2.5281,0 -4.44946,0.808992 -1.92135,0.808992 -3.33709,2.123604 -1.31461,1.213488 -2.1236,2.932596 -0.70787,1.617984 -0.80899,3.438216 z"
         id="path4" />
    </g>
    <path
       d="m 232.66929,114.70652 q 0,-1.79073 0.58989,-3.24438 0.61096,-1.45365 1.68539,-2.46488 1.07444,-1.0323 2.54916,-1.58006 1.47472,-0.54775 3.22331,-0.54775 1.7486,0 3.22331,0.54775 1.47472,0.54776 2.54916,1.58006 1.07444,1.01123 1.66432,2.46488 0.61096,1.45365 0.61096,3.24438 0,1.79073 -0.61096,3.24438 -0.58988,1.45365 -1.66432,2.48596 -1.07444,1.01123 -2.54916,1.55898 -1.47471,0.54776 -3.22331,0.54776 -1.74859,0 -3.22331,-0.54776 -1.47472,-0.54775 -2.54916,-1.55898 -1.07443,-1.03231 -1.68539,-2.48596 -0.58989,-1.45365 -0.58989,-3.24438 z m 3.41292,0 q 0,1.05337 0.31601,1.9382 0.33708,0.86377 0.94804,1.51686 0.61095,0.63202 1.45365,0.99016 0.86376,0.35815 1.91713,0.35815 1.05337,0 1.89607,-0.35815 0.86376,-0.35814 1.47472,-0.99016 0.61095,-0.65309 0.92696,-1.51686 0.33708,-0.88483 0.33708,-1.9382 0,-1.0323 -0.33708,-1.91713 -0.31601,-0.88483 -0.92696,-1.51685 -0.61096,-0.65309 -1.47472,-1.01124 -0.8427,-0.35814 -1.89607,-0.35814 -1.05337,0 -1.91713,0.35814 -0.8427,0.35815 -1.45365,1.01124 -0.61096,0.63202 -0.94804,1.51685 -0.31601,0.88483 -0.31601,1.91713 z m 14.91574,-7.45786 h 5.54072 q 1.15871,0 2.19101,0.21068 1.03231,0.21067 1.79073,0.73736 0.7795,0.50561 1.22191,1.39045 0.46348,0.86376 0.46348,2.191 0,1.30618 -0.42134,2.19101 -0.42135,0.88484 -1.15871,1.41152 -0.73736,0.52669 -1.7486,0.75843 -1.01123,0.21067 -2.191,0.21067 h -2.40169 v 5.8146 h -3.28651 z m 3.28651,6.32022 h 2.19101 q 0.44242,0 0.8427,-0.0843 0.42135,-0.0843 0.73736,-0.27387 0.33707,-0.21068 0.52668,-0.54775 0.21068,-0.35815 0.21068,-0.88484 0,-0.56882 -0.27388,-0.90589 -0.25281,-0.35815 -0.67416,-0.54776 -0.40028,-0.1896 -0.9059,-0.23174 -0.50561,-0.0632 -0.9691,-0.0632 h -1.68539 z m 10.11234,-6.32022 h 10.13342 v 3.03371 h -6.84691 v 2.7809 h 6.46769 v 3.0337 h -6.46769 v 3.03371 h 7.22612 v 3.0337 H 264.3968 Z m 13.14604,0 h 4.46629 l 6.34128,10.36516 h 0.0421 v -10.36516 h 3.28651 v 14.91572 h -4.29775 l -6.50982,-10.61797 h -0.0421 v 10.61797 h -3.28651 z m 30.77947,3.64466 q -0.40028,-0.50561 -1.0955,-0.73736 -0.67416,-0.2528 -1.28511,-0.2528 -0.35815,0 -0.73736,0.0843 -0.37922,0.0843 -0.71629,0.27387 -0.33708,0.16854 -0.54776,0.46348 -0.21067,0.29495 -0.21067,0.7163 0,0.67415 0.50562,1.0323 0.50561,0.35814 1.26404,0.61095 0.77949,0.25281 1.66433,0.50562 0.88483,0.25281 1.64325,0.71629 0.7795,0.46349 1.28511,1.24298 0.50562,0.77949 0.50562,2.08567 0,1.24298 -0.46348,2.16994 -0.46348,0.92697 -1.26405,1.53792 -0.77949,0.61096 -1.83286,0.9059 -1.0323,0.29495 -2.19101,0.29495 -1.45365,0 -2.69663,-0.44242 -1.24297,-0.44241 -2.31741,-1.43258 l 2.33848,-2.57023 q 0.50562,0.67416 1.26405,1.05337 0.77949,0.35815 1.60112,0.35815 0.40028,0 0.80056,-0.0843 0.42135,-0.10534 0.73736,-0.29494 0.33708,-0.18961 0.52668,-0.48455 0.21068,-0.29495 0.21068,-0.69523 0,-0.67415 -0.52669,-1.05337 -0.50562,-0.40028 -1.28511,-0.67415 -0.77949,-0.27388 -1.68539,-0.54776 -0.9059,-0.27387 -1.68539,-0.73736 -0.7795,-0.46348 -1.30618,-1.2219 -0.50562,-0.75843 -0.50562,-2.00141 0,-1.20084 0.46348,-2.10674 0.48455,-0.9059 1.26405,-1.51685 0.80056,-0.61095 1.83286,-0.9059 1.0323,-0.31601 2.12781,-0.31601 1.26404,0 2.44382,0.35815 1.17977,0.35814 2.1278,1.20084 z m 3.91853,3.8132 q 0,-1.79073 0.58988,-3.24438 0.61096,-1.45365 1.68539,-2.46488 1.07444,-1.0323 2.54916,-1.58006 1.47472,-0.54775 3.22331,-0.54775 1.7486,0 3.22331,0.54775 1.47472,0.54776 2.54916,1.58006 1.07444,1.01123 1.66432,2.46488 0.61096,1.45365 0.61096,3.24438 0,1.79073 -0.61096,3.24438 -0.58988,1.45365 -1.66432,2.48596 -1.07444,1.01123 -2.54916,1.55898 -1.47471,0.54776 -3.22331,0.54776 -1.74859,0 -3.22331,-0.54776 -1.47472,-0.54775 -2.54916,-1.55898 -1.07443,-1.03231 -1.68539,-2.48596 -0.58988,-1.45365 -0.58988,-3.24438 z m 3.41291,0 q 0,1.05337 0.31602,1.9382 0.33707,0.86377 0.94803,1.51686 0.61095,0.63202 1.45365,0.99016 0.86376,0.35815 1.91713,0.35815 1.05337,0 1.89607,-0.35815 0.86376,-0.35814 1.47472,-0.99016 0.61095,-0.65309 0.92696,-1.51686 0.33708,-0.88483 0.33708,-1.9382 0,-1.0323 -0.33708,-1.91713 -0.31601,-0.88483 -0.92696,-1.51685 -0.61096,-0.65309 -1.47472,-1.01124 -0.8427,-0.35814 -1.89607,-0.35814 -1.05337,0 -1.91713,0.35814 -0.8427,0.35815 -1.45365,1.01124 -0.61096,0.63202 -0.94803,1.51685 -0.31602,0.88483 -0.31602,1.91713 z m 27.49298,1.70646 q 0,1.32725 -0.40028,2.44382 -0.40029,1.11657 -1.20085,1.9382 -0.77949,0.82163 -1.95926,1.28511 -1.17978,0.46349 -2.7177,0.46349 -1.55899,0 -2.73876,-0.46349 -1.17978,-0.46348 -1.98034,-1.28511 -0.77949,-0.82163 -1.17977,-1.9382 -0.40028,-1.11657 -0.40028,-2.44382 v -9.16432 h 3.28651 v 9.03792 q 0,0.69522 0.21068,1.28511 0.23174,0.58989 0.63202,1.0323 0.40028,0.42135 0.94803,0.67416 0.56882,0.23174 1.22191,0.23174 0.65309,0 1.20084,-0.23174 0.54775,-0.25281 0.94804,-0.67416 0.40028,-0.44241 0.61095,-1.0323 0.23174,-0.58989 0.23174,-1.28511 v -9.03792 h 3.28652 z m 3.03368,-9.16432 h 5.77247 q 1.13764,0 2.14887,0.23175 1.03231,0.21067 1.79073,0.73735 0.7795,0.50562 1.22191,1.39045 0.46349,0.86377 0.46349,2.16994 0,1.58006 -0.82163,2.69663 -0.82163,1.09551 -2.40169,1.39045 l 3.79213,6.29915 h -3.9396 l -3.11797,-5.96207 h -1.62219 v 5.96207 h -3.28652 z m 3.28652,6.17275 h 1.9382 q 0.44241,0 0.92696,-0.0211 0.50562,-0.0421 0.9059,-0.1896 0.40028,-0.16854 0.65309,-0.50562 0.27388,-0.33708 0.27388,-0.94803 0,-0.56882 -0.23175,-0.9059 -0.23174,-0.33708 -0.58988,-0.50562 -0.35815,-0.18961 -0.82163,-0.25281 -0.46348,-0.0632 -0.9059,-0.0632 h -2.14887 z m 20.11938,-2.29634 q -0.48455,-0.58989 -1.20084,-0.9059 -0.69522,-0.31601 -1.62219,-0.31601 -0.92696,0 -1.72753,0.35814 -0.77949,0.35815 -1.36938,1.01124 -0.56882,0.63202 -0.90589,1.51685 -0.31602,0.88483 -0.31602,1.91713 0,1.05337 0.31602,1.9382 0.33707,0.86377 0.90589,1.51686 0.56882,0.63202 1.32725,0.99016 0.77949,0.35815 1.66432,0.35815 1.01124,0 1.79073,-0.42135 0.7795,-0.42135 1.28511,-1.17977 l 2.73877,2.04354 q -0.94804,1.32724 -2.40169,1.95926 -1.45365,0.63203 -2.99157,0.63203 -1.74859,0 -3.22331,-0.54776 -1.47472,-0.54775 -2.54915,-1.55898 -1.07444,-1.03231 -1.6854,-2.48596 -0.58988,-1.45365 -0.58988,-3.24438 0,-1.79073 0.58988,-3.24438 0.61096,-1.45365 1.6854,-2.46488 1.07443,-1.0323 2.54915,-1.58006 1.47472,-0.54775 3.22331,-0.54775 0.63202,0 1.30618,0.1264 0.69523,0.10534 1.34831,0.35815 0.67416,0.25281 1.28512,0.67416 0.61095,0.42135 1.0955,1.0323 z m 4.80336,-3.87641 h 10.13342 v 3.03371 h -6.8469 v 2.7809 h 6.46769 v 3.0337 h -6.46769 v 3.03371 h 7.22611 v 3.0337 h -10.51263 z m 24.03787,0.75843 q -0.63202,1.01124 -1.13764,1.9382 -0.50562,0.92697 -0.86376,1.89607 -0.33708,0.94803 -0.52669,2.0014 -0.18961,1.0323 -0.18961,2.25421 0,1.22191 0.18961,2.27528 0.18961,1.0323 0.52669,2.0014 0.35814,0.94804 0.86376,1.875 0.50562,0.92697 1.13764,1.9382 l -2.16994,1.26405 -0.0421,-0.0843 q -1.45365,-2.16994 -2.25421,-4.40309 -0.77949,-2.25421 -0.77949,-4.86657 0,-2.61236 0.77949,-4.8455 0.80056,-2.25421 2.25421,-4.42415 l 0.0421,-0.0843 z m 15.46345,13.10392 q -1.45365,0.75843 -3.03371,1.09551 -1.58005,0.33708 -3.22331,0.33708 -1.74859,0 -3.22331,-0.54776 -1.47472,-0.54775 -2.54916,-1.55898 -1.07443,-1.03231 -1.68539,-2.48596 -0.58988,-1.45365 -0.58988,-3.24438 0,-1.79073 0.58988,-3.24438 0.61096,-1.45365 1.68539,-2.46488 1.07444,-1.0323 2.54916,-1.58006 1.47472,-0.54775 3.22331,-0.54775 1.79073,0 3.28652,0.44242 1.51685,0.42134 2.65449,1.47471 l -2.31741,2.52809 q -0.67416,-0.69522 -1.51686,-1.05337 -0.84269,-0.35814 -2.10674,-0.35814 -1.05337,0 -1.91713,0.35814 -0.8427,0.35815 -1.45365,1.01124 -0.61096,0.63202 -0.94803,1.51685 -0.31602,0.88483 -0.31602,1.91713 0,1.05337 0.31602,1.9382 0.33707,0.86377 0.94803,1.51686 0.61095,0.63202 1.45365,0.99016 0.86376,0.35815 1.91713,0.35815 1.07444,0 1.85393,-0.23174 0.7795,-0.25281 1.24298,-0.50562 v -2.42275 h -2.67556 v -3.03371 h 5.83567 z m 2.88624,-13.86235 h 5.54072 q 1.15871,0 2.19101,0.21068 1.03231,0.21067 1.79073,0.73736 0.7795,0.50561 1.22191,1.39045 0.46349,0.86376 0.46349,2.191 0,1.30618 -0.42135,2.19101 -0.42135,0.88484 -1.15871,1.41152 -0.73736,0.52669 -1.74859,0.75843 -1.01124,0.21067 -2.19101,0.21067 h -2.40169 v 5.8146 h -3.28651 z m 3.28651,6.32022 h 2.19101 q 0.44242,0 0.8427,-0.0843 0.42135,-0.0843 0.73736,-0.27387 0.33708,-0.21068 0.52668,-0.54775 0.21068,-0.35815 0.21068,-0.88484 0,-0.56882 -0.27388,-0.90589 -0.25281,-0.35815 -0.67416,-0.54776 -0.40028,-0.1896 -0.90589,-0.23174 -0.50562,-0.0632 -0.9691,-0.0632 h -1.6854 z m 10.11234,-6.32022 h 3.28651 v 11.88202 h 6.08848 v 3.0337 h -9.37499 z m 9.71208,4.67697 h 3.41292 l 2.59129,6.95224 h 0.0421 l 2.40169,-6.95224 h 3.18117 l -4.04494,10.23875 h -3.34971 z m 16.22189,1.20084 h 1.03231 q 0.44241,0 0.86376,-0.0632 0.42135,-0.0632 0.75842,-0.23175 0.35815,-0.1896 0.56882,-0.50561 0.21068,-0.33708 0.21068,-0.86377 0,-0.67415 -0.54775,-1.11657 -0.52669,-0.44241 -1.30618,-0.44241 -0.73736,0 -1.22191,0.40028 -0.48455,0.40028 -0.63202,0.99016 l -3.47612,-0.71629 q 0.2528,-0.9691 0.75842,-1.64325 0.50562,-0.69523 1.20084,-1.11658 0.69523,-0.42134 1.53792,-0.61095 0.86377,-0.21068 1.8118,-0.21068 0.99017,0 1.89607,0.25281 0.92696,0.23175 1.62219,0.75843 0.69522,0.50562 1.0955,1.28511 0.42135,0.7795 0.42135,1.85393 0,1.24298 -0.65309,2.12781 -0.65309,0.88483 -1.89607,1.13764 v 0.0632 q 0.67416,0.0843 1.17978,0.40028 0.52668,0.31601 0.88483,0.7795 0.35814,0.46348 0.54775,1.05337 0.18961,0.58988 0.18961,1.24297 0,1.11658 -0.44242,1.95927 -0.42135,0.8427 -1.1587,1.41152 -0.7163,0.54775 -1.70646,0.82163 -0.9691,0.27387 -2.06461,0.27387 -2.0014,0 -3.45505,-0.92696 -1.43259,-0.92697 -1.89607,-2.92837 l 3.32865,-0.7795 q 0.16854,0.80056 0.67416,1.26405 0.52668,0.46348 1.53792,0.46348 1.0323,0 1.51685,-0.52668 0.50562,-0.54776 0.50562,-1.39045 0,-0.63202 -0.27388,-0.9691 -0.25281,-0.35815 -0.67416,-0.52669 -0.42134,-0.16854 -0.94803,-0.1896 -0.52668,-0.0421 -1.05337,-0.0421 h -0.73736 z m 8.36378,11.06038 q 0.63203,-1.01123 1.13764,-1.9382 0.50562,-0.92696 0.8427,-1.875 0.35814,-0.9691 0.54775,-2.0014 0.18961,-1.05337 0.18961,-2.27528 0,-1.22191 -0.18961,-2.25421 -0.18961,-1.05337 -0.54775,-2.0014 -0.33708,-0.9691 -0.8427,-1.89607 -0.50561,-0.92696 -1.13764,-1.9382 l 2.16995,-1.26404 0.0421,0.0843 q 1.45365,2.16994 2.23314,4.42415 0.80057,2.23314 0.80057,4.8455 0,2.61236 -0.80057,4.86657 -0.77949,2.23315 -2.23314,4.40309 l -0.0421,0.0843 z"
       id="text11"
       style="font-weight:800;font-size:21.0674px;font-family:Avenir;-inkscape-font-specification:'Avenir Ultra-Bold';fill:#808080;stroke-width:0.526688"
       aria-label="OPEN SOURCE (GPLv3)" />
    <g
       id="g14"
       style="fill:#2f6fa5;fill-opacity:1"
       transform="matrix(8.1257542,0,0,8.1257542,12.663597,7.7584942)">
      <path
         d="M 1.5,8 A 6.5,6.5 0 0 1 8.244,1.504 0.75000433,0.75000433 0 1 0 8.299,0.005 8,8 0 1 0 15.335,11.198 0.75010416,0.75010416 0 0 0 13.96,10.598 6.722,6.722 0 0 1 13.74,11.051 6.5,6.5 0 0 1 1.5,8 Z M 11.74,0.926 a 0.75041405,0.75041405 0 1 0 -0.703,1.326 c 0.144,0.076 0.284,0.157 0.421,0.243 a 0.75048318,0.75048318 0 0 0 0.8,-1.27 7.995,7.995 0 0 0 -0.519,-0.299 z m 3.034,2.817 a 0.7502168,0.7502168 0 0 0 -1.27,0.799 c 0.087,0.137 0.168,0.277 0.244,0.42 a 0.75,0.75 0 0 0 1.326,-0.701 8.04,8.04 0 0 0 -0.3,-0.518 z M 15.995,7.7 a 0.75052248,0.75052248 0 0 0 -1.5,0.056 6.583,6.583 0 0 1 0.002,0.45 0.75036808,0.75036808 0 1 0 1.5,0.047 8.158,8.158 0 0 0 -0.002,-0.552 z"
         id="path1"
         style="fill:#2f6fa5;fill-opacity:1" />
      <path
         d="m 11.78,5.22 a 0.75,0.75 0 0 1 0,1.06 l -4.5,4.5 a 0.75,0.75 0 0 1 -1.06,0 l -2,-2 A 0.75,0.75 0 0 1 5.28,7.72 l 1.47,1.47 3.97,-3.97 a 0.75,0.75 0 0 1 1.06,0 z"
         id="path2"
         style="fill:#209f91;fill-opacity:1" />
      <path
         d="m 11.74,0.926 c -0.884,-0.46866646 -1.587,0.8573335 -0.703,1.326 0.144,0.076 0.284,0.157 0.421,0.243 0.846642,0.5332249 1.646642,-0.7367751 0.8,-1.27 C 12.088795,1.1188857 11.915674,1.019149 11.739,0.926 Z m 3.034,2.817 c -0.532666,-0.8466663 -1.802666,-0.047666 -1.27,0.799 0.087,0.137 0.168,0.277 0.244,0.42 0.472233,0.8679377 1.777301,0.1780038 1.326,-0.701 -0.09353,-0.1763307 -0.193605,-0.3491171 -0.3,-0.518 z M 15.995,7.7 c -0.03733,-0.9999996 -1.537333,-0.9439996 -1.5,0.056 0.0058,0.1499334 0.0065,0.300021 0.002,0.45 -0.03144,1.0000951 1.468565,1.0470951 1.5,0.047 0.0056,-0.1839699 0.0049,-0.3680752 -0.002,-0.552 z"
         id="path12"
         style="fill:#209f91;fill-opacity:1"
         sodipodi:nodetypes="ccccccccccccccccc" />
    </g>
  </g>
</svg>
