<?xml version="1.0" encoding="UTF-8" standalone="no"?>
<!-- Created with Inkscape (http://www.inkscape.org/) -->

<svg
   width="200mm"
   height="200mm"
   viewBox="0 0 200 200"
   version="1.1"
   id="svg1"
   xml:space="preserve"
   inkscape:version="1.4.4 (dcaf3e7, 2026-05-05)"
   sodipodi:docname="logo.svg"
   xmlns:inkscape="http://www.inkscape.org/namespaces/inkscape"
   xmlns:sodipodi="http://sodipodi.sourceforge.net/DTD/sodipodi-0.dtd"
   xmlns="http://www.w3.org/2000/svg"
   xmlns:svg="http://www.w3.org/2000/svg"><sodipodi:namedview
     id="namedview1"
     pagecolor="#ffffff"
     bordercolor="#000000"
     borderopacity="0.25"
     inkscape:showpageshadow="2"
     inkscape:pageopacity="0.0"
     inkscape:pagecheckerboard="0"
     inkscape:deskcolor="#d1d1d1"
     inkscape:document-units="mm"
     inkscape:zoom="0.33768368"
     inkscape:cx="287.25107"
     inkscape:cy="473.81621"
     inkscape:window-width="1512"
     inkscape:window-height="831"
     inkscape:window-x="0"
     inkscape:window-y="33"
     inkscape:window-maximized="1"
     inkscape:current-layer="g9" /><defs
     id="defs1" /><g
     inkscape:label="Capa 1"
     inkscape:groupmode="layer"
     id="layer1"><g
       id="g8"
       transform="matrix(0.26458333,0,0,0.26458333,-31.761931,-23.638591)"><g
         id="g9"
         transform="matrix(0.99543303,0,0,0.99543303,-50.424137,-431.93229)"><g
           id="text9"
           style="font-weight:bold;font-size:192.881px;font-family:'DIN Alternate';-inkscape-font-specification:'DIN Alternate Bold';fill:#209f91;stroke-width:1.00459"
           aria-label="EDLibre"><path
             style="font-weight:800;font-family:Avenir;-inkscape-font-specification:'Avenir Ultra-Bold';fill:#2f6fa5"
             d="m 197.67672,1083.2608 h 92.77576 v 27.7749 h -62.68632 v 25.4603 h 59.21446 v 27.7748 h -59.21446 v 27.7749 h 66.15818 v 27.7749 h -96.24762 z m 120.35759,0 h 45.13415 q 16.39488,0 31.05384,3.6647 14.85184,3.6648 25.84605,11.9587 10.99422,8.101 17.35929,21.2169 6.55796,13.1159 6.55796,31.8253 0,16.5878 -6.36508,29.318 -6.17219,12.5372 -16.78064,21.2169 -10.60846,8.4867 -24.49589,12.923 -13.88743,4.4363 -29.12503,4.4363 h -49.18465 z m 30.08943,108.7849 h 15.62336 q 10.41558,0 19.2881,-2.1217 9.06541,-2.1217 15.62336,-6.9437 6.55796,-5.0149 10.22269,-12.923 3.85762,-8.101 3.85762,-19.6739 0,-10.0298 -3.85762,-17.3593 -3.66473,-7.5224 -10.02981,-12.3444 -6.36507,-4.822 -15.04471,-7.1366 -8.48677,-2.5074 -17.93794,-2.5074 h -17.74505 z"
             id="path3" /><path
             style="font-weight:800;font-family:Avenir;-inkscape-font-specification:'Avenir Ultra-Bold'"
             d="m 465.5884,1083.2608 h 30.08944 v 108.7849 h 55.74261 v 27.7749 H 465.5884 Z m 99.14098,42.8196 h 28.93215 v 93.7402 h -28.93215 z m -2.31457,-29.5108 q 0,-6.9437 4.82202,-11.7657 5.01491,-5.0149 11.95863,-5.0149 6.94371,0 11.76574,5.0149 5.0149,4.822 5.0149,11.7657 0,6.9437 -5.0149,11.9586 -4.82203,4.822 -11.76574,4.822 -6.94372,0 -11.95863,-4.822 -4.82202,-5.0149 -4.82202,-11.9586 z m 54.77825,-22.5671 h 28.93215 v 62.1077 h 0.38576 q 5.01491,-6.7508 12.73015,-9.4512 7.90812,-2.8932 16.97353,-2.8932 10.02981,0 17.93793,4.2434 7.90812,4.0505 13.30879,10.9942 5.59355,6.9437 8.48676,16.0091 3.0861,8.8726 3.0861,18.7095 0,10.6085 -3.27898,19.481 -3.27898,8.8725 -9.45117,15.4305 -5.97931,6.365 -14.46607,10.0298 -8.48677,3.4718 -18.90234,3.4718 -5.01491,0 -9.45117,-1.3501 -4.43626,-1.3502 -8.29388,-3.4719 -3.66474,-2.1217 -6.55796,-4.6291 -2.70033,-2.7004 -4.43626,-5.2078 h -0.38576 v 12.3444 h -26.61758 z m 26.61758,98.948 q 0,10.6084 5.97931,17.1664 6.17219,6.5579 17.16641,6.5579 10.99422,0 16.97353,-6.5579 6.17219,-6.558 6.17219,-17.1664 0,-10.6085 -6.17219,-17.1664 -5.97931,-6.558 -16.97353,-6.558 -10.99422,0 -17.16641,6.558 -5.97931,6.5579 -5.97931,17.1664 z m 92.19695,-46.8701 h 28.93215 v 15.0447 h 0.38576 q 4.62915,-8.6796 10.99422,-12.923 6.36507,-4.4363 16.00912,-4.4363 2.50745,0 5.01491,0.1929 2.50745,0.1929 4.62914,0.7715 v 26.4247 q -3.0861,-0.9644 -6.17219,-1.3501 -2.89322,-0.5787 -6.17219,-0.5787 -8.29389,0 -13.11591,2.3146 -4.82203,2.3146 -7.52236,6.5579 -2.50745,4.0505 -3.27898,9.837 -0.77152,5.7864 -0.77152,12.7301 v 39.1549 h -28.93215 z m 163.75596,77.5382 q -6.94372,8.8725 -17.55217,13.6945 -10.60846,4.822 -21.98844,4.822 -10.80133,0 -20.44538,-3.4718 -9.45117,-3.4719 -16.58777,-9.837 -6.94371,-6.5579 -10.99421,-15.6233 -4.0505,-9.0654 -4.0505,-20.2525 0,-11.1871 4.0505,-20.2525 4.0505,-9.0654 10.99421,-15.4305 7.1366,-6.558 16.58777,-10.0298 9.64405,-3.4719 20.44538,-3.4719 10.02982,0 18.13082,3.4719 8.29388,3.4718 13.88743,10.0298 5.78643,6.3651 8.87253,15.4305 3.08609,9.0654 3.08609,20.2525 v 9.0654 h -67.12259 q 1.73593,8.2939 7.52236,13.3088 5.78643,4.822 14.2732,4.822 7.13659,0 11.95862,-3.0861 5.01491,-3.279 8.67964,-8.2939 z m -24.49589,-41.2766 q 0.19288,-7.3295 -4.82202,-12.5372 -5.01491,-5.2078 -12.92303,-5.2078 -4.82202,0 -8.48676,1.543 -3.66474,1.5431 -6.36508,4.0505 -2.50745,2.3146 -4.0505,5.5936 -1.35016,3.0861 -1.54305,6.5579 z"
             id="path4" /></g><path
           d="m 337.62405,1254.5098 q 0,-3.4156 1.12514,-6.1883 1.16532,-2.7726 3.21468,-4.7014 2.04936,-1.969 4.8622,-3.0138 2.81285,-1.0448 6.14808,-1.0448 3.33523,0 6.14807,1.0448 2.81285,1.0448 4.86221,3.0138 2.04935,1.9288 3.17449,4.7014 1.16532,2.7727 1.16532,6.1883 0,3.4156 -1.16532,6.1882 -1.12514,2.7727 -3.17449,4.7417 -2.04936,1.9288 -4.86221,2.9736 -2.81284,1.0447 -6.14807,1.0447 -3.33523,0 -6.14808,-1.0447 -2.81284,-1.0448 -4.8622,-2.9736 -2.04936,-1.969 -3.21468,-4.7417 -1.12514,-2.7726 -1.12514,-6.1882 z m 6.50973,0 q 0,2.0092 0.60275,3.6969 0.64294,1.6475 1.80826,2.8932 1.16532,1.2055 2.77266,1.8886 1.64752,0.6831 3.6567,0.6831 2.00917,0 3.61651,-0.6831 1.64753,-0.6831 2.81285,-1.8886 1.16532,-1.2457 1.76807,-2.8932 0.64294,-1.6877 0.64294,-3.6969 0,-1.969 -0.64294,-3.6567 -0.60275,-1.6877 -1.76807,-2.8932 -1.16532,-1.2457 -2.81285,-1.9288 -1.60734,-0.6832 -3.61651,-0.6832 -2.00918,0 -3.6567,0.6832 -1.60734,0.6831 -2.77266,1.9288 -1.16532,1.2055 -1.80826,2.8932 -0.60275,1.6877 -0.60275,3.6567 z m 28.44995,-14.225 h 10.56826 q 2.21009,0 4.17908,0.4019 1.96899,0.4018 3.4156,1.4064 1.48679,0.9644 2.33064,2.6521 0.88404,1.6475 0.88404,4.1791 0,2.4914 -0.80367,4.1791 -0.80367,1.6877 -2.2101,2.6923 -1.40642,1.0045 -3.33523,1.4466 -1.9288,0.4018 -4.17908,0.4018 h -4.58092 v 11.0906 h -6.26862 z m 6.26862,12.0551 h 4.17909 q 0.84385,0 1.60734,-0.1608 0.80366,-0.1607 1.40642,-0.5223 0.64293,-0.4019 1.00458,-1.0448 0.40184,-0.6831 0.40184,-1.6877 0,-1.085 -0.52239,-1.7279 -0.4822,-0.6831 -1.28587,-1.0448 -0.76348,-0.3616 -1.72789,-0.442 -0.9644,-0.1206 -1.84844,-0.1206 h -3.21468 z m 19.28805,-12.0551 h 19.32826 v 5.7864 h -13.05964 v 5.3043 h 12.33634 v 5.7864 h -12.33634 v 5.7864 h 13.78294 v 5.7864 H 398.1404 Z m 25.07447,0 h 8.5189 l 12.09523,19.7703 h 0.0804 v -19.7703 h 6.26862 v 28.4499 h -8.19743 l -12.4167,-20.2524 h -0.0804 v 20.2524 h -6.26862 z m 58.7081,6.9518 q -0.76349,-0.9644 -2.08955,-1.4065 -1.28587,-0.4822 -2.45119,-0.4822 -0.68312,0 -1.40642,0.1608 -0.7233,0.1607 -1.36624,0.5224 -0.64294,0.3214 -1.04477,0.884 -0.40184,0.5626 -0.40184,1.3662 0,1.2859 0.96441,1.969 0.9644,0.6832 2.41101,1.1654 1.48679,0.4822 3.17449,0.9644 1.68771,0.4822 3.13432,1.3662 1.48679,0.884 2.45119,2.3708 0.9644,1.4868 0.9644,3.9782 0,2.3708 -0.88403,4.1389 -0.88404,1.7681 -2.41101,2.9334 -1.48679,1.1653 -3.49597,1.7279 -1.96899,0.5625 -4.17908,0.5625 -2.77266,0 -5.14349,-0.8438 -2.37082,-0.8439 -4.42018,-2.7325 l 4.46037,-4.9024 q 0.9644,1.2859 2.41101,2.0092 1.48678,0.6831 3.05394,0.6831 0.76349,0 1.52697,-0.1607 0.80367,-0.2009 1.40643,-0.5626 0.64293,-0.3616 1.00458,-0.9242 0.40184,-0.5626 0.40184,-1.3261 0,-1.2858 -1.00459,-2.0091 -0.9644,-0.7635 -2.45119,-1.2859 -1.48679,-0.5224 -3.21468,-1.0448 -1.72789,-0.5224 -3.21468,-1.4064 -1.48679,-0.884 -2.49138,-2.3306 -0.9644,-1.4466 -0.9644,-3.8175 0,-2.2904 0.88403,-4.0183 0.92422,-1.7279 2.41101,-2.8932 1.52698,-1.1654 3.49597,-1.7279 1.96899,-0.6028 4.05853,-0.6028 2.41101,0 4.66129,0.6831 2.25027,0.6832 4.05853,2.2905 z m 7.47409,7.2732 q 0,-3.4156 1.12514,-6.1883 1.16532,-2.7726 3.21468,-4.7014 2.04936,-1.969 4.8622,-3.0138 2.81285,-1.0448 6.14808,-1.0448 3.33523,0 6.14807,1.0448 2.81285,1.0448 4.86221,3.0138 2.04936,1.9288 3.17449,4.7014 1.16532,2.7727 1.16532,6.1883 0,3.4156 -1.16532,6.1882 -1.12513,2.7727 -3.17449,4.7417 -2.04936,1.9288 -4.86221,2.9736 -2.81284,1.0447 -6.14807,1.0447 -3.33523,0 -6.14808,-1.0447 -2.81284,-1.0448 -4.8622,-2.9736 -2.04936,-1.969 -3.21468,-4.7417 -1.12514,-2.7726 -1.12514,-6.1882 z m 6.50973,0 q 0,2.0092 0.60275,3.6969 0.64294,1.6475 1.80826,2.8932 1.16532,1.2055 2.77266,1.8886 1.64752,0.6831 3.6567,0.6831 2.00917,0 3.61651,-0.6831 1.64753,-0.6831 2.81285,-1.8886 1.16532,-1.2457 1.76807,-2.8932 0.64294,-1.6877 0.64294,-3.6969 0,-1.969 -0.64294,-3.6567 -0.60275,-1.6877 -1.76807,-2.8932 -1.16532,-1.2457 -2.81285,-1.9288 -1.60734,-0.6832 -3.61651,-0.6832 -2.00918,0 -3.6567,0.6832 -1.60734,0.6831 -2.77266,1.9288 -1.16532,1.2055 -1.80826,2.8932 -0.60275,1.6877 -0.60275,3.6567 z m 52.4395,3.2548 q 0,2.5316 -0.76348,4.6613 -0.76349,2.1298 -2.29046,3.6969 -1.48679,1.5672 -3.73707,2.4512 -2.25028,0.884 -5.18367,0.884 -2.97358,0 -5.22386,-0.884 -2.25027,-0.884 -3.77724,-2.4512 -1.48679,-1.5671 -2.25028,-3.6969 -0.76349,-2.1297 -0.76349,-4.6613 v -17.4798 h 6.26863 v 17.2387 q 0,1.3261 0.40183,2.4512 0.44202,1.1252 1.20551,1.969 0.76349,0.8037 1.80826,1.2859 1.08495,0.442 2.33064,0.442 1.24569,0 2.29046,-0.442 1.04477,-0.4822 1.80826,-1.2859 0.76348,-0.8438 1.16532,-1.969 0.44202,-1.1251 0.44202,-2.4512 v -17.2387 h 6.26862 z m 5.78639,-17.4798 h 11.01028 q 2.16991,0 4.09872,0.442 1.96899,0.4019 3.4156,1.4065 1.48679,0.9644 2.33064,2.6521 0.88404,1.6475 0.88404,4.1389 0,3.0137 -1.56716,5.1435 -1.56716,2.0895 -4.58092,2.6521 l 7.23303,12.0148 h -7.51431 l -5.94716,-11.3719 h -3.09413 v 11.3719 h -6.26863 z m 6.26863,11.7738 h 3.69688 q 0.84385,0 1.76807,-0.04 0.96441,-0.08 1.7279,-0.3616 0.76348,-0.3215 1.24568,-0.9644 0.52239,-0.643 0.52239,-1.8083 0,-1.085 -0.44202,-1.7279 -0.44202,-0.6429 -1.12514,-0.9644 -0.68312,-0.3617 -1.56715,-0.4822 -0.88404,-0.1206 -1.72789,-0.1206 h -4.09872 z m 38.37527,-4.38 q -0.92422,-1.1251 -2.29046,-1.7279 -1.32605,-0.6028 -3.09413,-0.6028 -1.76807,0 -3.29504,0.6832 -1.48679,0.6831 -2.61193,1.9288 -1.08495,1.2055 -1.72789,2.8932 -0.60275,1.6877 -0.60275,3.6567 0,2.0092 0.60275,3.6969 0.64294,1.6475 1.72789,2.8932 1.08495,1.2055 2.53156,1.8886 1.48679,0.6831 3.1745,0.6831 1.92881,0 3.41559,-0.8036 1.48679,-0.8037 2.4512,-2.2503 l 5.22385,3.8978 q -1.80825,2.5315 -4.58092,3.737 -2.77266,1.2055 -5.70605,1.2055 -3.33523,0 -6.14808,-1.0447 -2.81284,-1.0448 -4.8622,-2.9736 -2.04936,-1.969 -3.21468,-4.7417 -1.12514,-2.7726 -1.12514,-6.1882 0,-3.4156 1.12514,-6.1883 1.16532,-2.7726 3.21468,-4.7014 2.04936,-1.969 4.8622,-3.0138 2.81285,-1.0448 6.14808,-1.0448 1.2055,0 2.49137,0.2411 1.32606,0.2009 2.57175,0.6831 1.28587,0.4822 2.45119,1.2859 1.16532,0.8037 2.08954,1.969 z m 9.16181,-7.3938 h 19.32826 v 5.7864 h -13.05963 v 5.3043 h 12.33633 v 5.7864 h -12.33633 v 5.7864 h 13.78294 v 5.7864 h -20.05157 z m 45.84932,1.4466 q -1.2055,1.9288 -2.16991,3.6969 -0.9644,1.7681 -1.64752,3.6165 -0.64294,1.8083 -1.00459,3.8175 -0.36165,1.969 -0.36165,4.2996 0,2.3306 0.36165,4.3398 0.36165,1.969 1.00459,3.8174 0.68312,1.8083 1.64752,3.5764 0.96441,1.768 2.16991,3.6969 l -4.1389,2.411 -0.0804,-0.1608 q -2.77266,-4.1389 -4.29963,-8.3983 -1.48679,-4.2997 -1.48679,-9.2824 0,-4.9828 1.48679,-9.2422 1.52697,-4.2996 4.29963,-8.4385 l 0.0804,-0.1608 z m 29.49466,24.9942 q -2.77267,1.4466 -5.78643,2.0895 -3.01376,0.6429 -6.14807,0.6429 -3.33523,0 -6.14808,-1.0447 -2.81284,-1.0448 -4.8622,-2.9736 -2.04936,-1.969 -3.21468,-4.7417 -1.12514,-2.7726 -1.12514,-6.1882 0,-3.4156 1.12514,-6.1883 1.16532,-2.7726 3.21468,-4.7014 2.04936,-1.969 4.8622,-3.0138 2.81285,-1.0448 6.14808,-1.0448 3.41559,0 6.26862,0.8439 2.89321,0.8036 5.06312,2.8128 l -4.42018,4.822 q -1.28587,-1.326 -2.89321,-2.0091 -1.60734,-0.6832 -4.01835,-0.6832 -2.00918,0 -3.6567,0.6832 -1.60734,0.6831 -2.77266,1.9288 -1.16533,1.2055 -1.80826,2.8932 -0.60275,1.6877 -0.60275,3.6567 0,2.0092 0.60275,3.6969 0.64293,1.6475 1.80826,2.8932 1.16532,1.2055 2.77266,1.8886 1.64752,0.6831 3.6567,0.6831 2.04935,0 3.53614,-0.442 1.48679,-0.4822 2.37083,-0.9644 v -4.6211 h -5.1033 v -5.7864 h 11.13083 z m 5.50513,-26.4408 h 10.56826 q 2.21009,0 4.17908,0.4019 1.96899,0.4018 3.4156,1.4064 1.48679,0.9644 2.33064,2.6521 0.88404,1.6475 0.88404,4.1791 0,2.4914 -0.80367,4.1791 -0.80367,1.6877 -2.21009,2.6923 -1.40642,1.0045 -3.33523,1.4466 -1.92881,0.4018 -4.17909,0.4018 h -4.58092 v 11.0906 h -6.26862 z m 6.26862,12.0551 h 4.17909 q 0.84385,0 1.60734,-0.1608 0.80367,-0.1607 1.40642,-0.5223 0.64294,-0.4019 1.00459,-1.0448 0.40183,-0.6831 0.40183,-1.6877 0,-1.085 -0.52238,-1.7279 -0.4822,-0.6831 -1.28587,-1.0448 -0.76349,-0.3616 -1.72789,-0.442 -0.96441,-0.1206 -1.84845,-0.1206 h -3.21468 z m 19.28806,-12.0551 h 6.26863 v 22.6635 h 11.61303 v 5.7864 h -17.88166 z m 18.52461,8.9208 h 6.50973 l 4.94257,13.2605 h 0.0804 l 4.58092,-13.2605 h 6.06771 l -7.71523,19.5291 h -6.38918 z m 30.94128,2.2904 h 1.96899 q 0.84385,0 1.64752,-0.1205 0.80367,-0.1206 1.44661,-0.442 0.68312,-0.3617 1.08495,-0.9645 0.40184,-0.6429 0.40184,-1.6475 0,-1.2858 -1.04477,-2.1297 -1.00459,-0.8439 -2.49138,-0.8439 -1.40642,0 -2.33064,0.7635 -0.92422,0.7635 -1.20551,1.8887 l -6.63027,-1.3663 q 0.4822,-1.8484 1.4466,-3.1343 0.9644,-1.3261 2.29046,-2.1297 1.32606,-0.8037 2.9334,-1.1653 1.64752,-0.4019 3.45578,-0.4019 1.88862,0 3.61651,0.4822 1.76808,0.442 3.09413,1.4466 1.32606,0.9644 2.08954,2.4512 0.80367,1.4868 0.80367,3.5362 0,2.3708 -1.24569,4.0585 -1.24568,1.6877 -3.61651,2.1699 v 0.1206 q 1.28587,0.1607 2.25028,0.7635 1.00458,0.6027 1.6877,1.4867 0.68312,0.8841 1.04477,2.0092 0.36165,1.1252 0.36165,2.3708 0,2.1298 -0.84385,3.7371 -0.80367,1.6073 -2.21009,2.6923 -1.36624,1.0448 -3.25486,1.5672 -1.84845,0.5223 -3.93799,0.5223 -3.81743,0 -6.59009,-1.768 -2.73248,-1.7681 -3.61652,-5.5855 l 6.349,-1.4868 q 0.32146,1.5269 1.28587,2.411 1.00459,0.884 2.93339,0.884 1.969,0 2.89322,-1.0046 0.9644,-1.0447 0.9644,-2.6521 0,-1.2055 -0.52239,-1.8484 -0.4822,-0.6831 -1.28587,-1.0046 -0.80367,-0.3215 -1.80825,-0.3617 -1.00459,-0.08 -2.00918,-0.08 h -1.40642 z m 15.95291,21.0964 q 1.20551,-1.9289 2.16991,-3.6969 0.9644,-1.7681 1.60734,-3.5764 0.68312,-1.8484 1.04477,-3.8174 0.36165,-2.0092 0.36165,-4.3398 0,-2.3306 -0.36165,-4.2996 -0.36165,-2.0092 -1.04477,-3.8175 -0.64294,-1.8484 -1.60734,-3.6165 -0.9644,-1.7681 -2.16991,-3.6969 l 4.1389,-2.411 0.0804,0.1608 q 2.77266,4.1389 4.25945,8.4385 1.52697,4.2594 1.52697,9.2422 0,4.9827 -1.52697,9.2824 -1.48679,4.2594 -4.25945,8.3983 l -0.0804,0.1608 z"
           id="text11"
           style="font-weight:800;font-size:40.1835px;font-family:Avenir;-inkscape-font-specification:'Avenir Ultra-Bold';fill:#808080;stroke-width:1.00459"
           aria-label="OPEN SOURCE (GPLv3)" /><g
           style="fill:#209f91;fill-opacity:1"
           id="g12"
           transform="matrix(30.852414,0,0,30.852414,304.07299,535.73727)"><g
             fill="#000000"
             id="g2"
             style="fill:#2f6fa5;fill-opacity:1"><g
               id="g13"
               style="fill:#2f6fa5;fill-opacity:1"><g
                 id="g14"><path
                   d="M 1.5,8 A 6.5,6.5 0 0 1 8.244,1.504 0.75000433,0.75000433 0 1 0 8.299,0.005 8,8 0 1 0 15.335,11.198 0.75010416,0.75010416 0 0 0 13.96,10.598 6.722,6.722 0 0 1 13.74,11.051 6.5,6.5 0 0 1 1.5,8 Z M 11.74,0.926 a 0.75041405,0.75041405 0 1 0 -0.703,1.326 c 0.144,0.076 0.284,0.157 0.421,0.243 a 0.75048318,0.75048318 0 0 0 0.8,-1.27 7.995,7.995 0 0 0 -0.519,-0.299 z m 3.034,2.817 a 0.7502168,0.7502168 0 0 0 -1.27,0.799 c 0.087,0.137 0.168,0.277 0.244,0.42 a 0.75,0.75 0 0 0 1.326,-0.701 8.04,8.04 0 0 0 -0.3,-0.518 z M 15.995,7.7 a 0.75052248,0.75052248 0 0 0 -1.5,0.056 6.583,6.583 0 0 1 0.002,0.45 0.75036808,0.75036808 0 1 0 1.5,0.047 8.158,8.158 0 0 0 -0.002,-0.552 z"
                   id="path1"
                   style="fill:#2f6fa5;fill-opacity:1" /><path
                   d="m 11.78,5.22 a 0.75,0.75 0 0 1 0,1.06 l -4.5,4.5 a 0.75,0.75 0 0 1 -1.06,0 l -2,-2 A 0.75,0.75 0 0 1 5.28,7.72 l 1.47,1.47 3.97,-3.97 a 0.75,0.75 0 0 1 1.06,0 z"
                   id="path2"
                   style="fill:#209f91;fill-opacity:1" /><path
                   d="m 11.74,0.926 c -0.884,-0.46866646 -1.587,0.8573335 -0.703,1.326 0.144,0.076 0.284,0.157 0.421,0.243 0.846642,0.5332249 1.646642,-0.7367751 0.8,-1.27 C 12.088795,1.1188857 11.915674,1.019149 11.739,0.926 Z m 3.034,2.817 c -0.532666,-0.8466663 -1.802666,-0.047666 -1.27,0.799 0.087,0.137 0.168,0.277 0.244,0.42 0.472233,0.8679377 1.777301,0.1780038 1.326,-0.701 -0.09353,-0.1763307 -0.193605,-0.3491171 -0.3,-0.518 z M 15.995,7.7 c -0.03733,-0.9999996 -1.537333,-0.9439996 -1.5,0.056 0.0058,0.1499334 0.0065,0.300021 0.002,0.45 -0.03144,1.0000951 1.468565,1.0470951 1.5,0.047 0.0056,-0.1839699 0.0049,-0.3680752 -0.002,-0.552 z"
                   id="path12"
                   style="fill:#209f91;fill-opacity:1"
                   sodipodi:nodetypes="ccccccccccccccccc" /></g></g></g></g></g></g></g></svg>
